<svg width="50" height="50" viewBox="0 0 50 50" fill="none" xmlns="http://www.w3.org/2000/svg">
<circle cx="25" cy="25" r="25" fill="white"/>
<path d="M19.96 13H30.04C33.88 13 37 16.12 37 19.96V30.04C37 31.8859 36.2667 33.6562 34.9615 34.9615C33.6562 36.2667 31.8859 37 30.04 37H19.96C16.12 37 13 33.88 13 30.04V19.96C13 18.1141 13.7333 16.3438 15.0385 15.0385C16.3438 13.7333 18.1141 13 19.96 13ZM19.72 15.4C18.5743 15.4 17.4755 15.8551 16.6653 16.6653C15.8551 17.4755 15.4 18.5743 15.4 19.72V30.28C15.4 32.668 17.332 34.6 19.72 34.6H30.28C31.4257 34.6 32.5245 34.1449 33.3347 33.3347C34.1449 32.5245 34.6 31.4257 34.6 30.28V19.72C34.6 17.332 32.668 15.4 30.28 15.4H19.72ZM31.3 17.2C31.6978 17.2 32.0794 17.358 32.3607 17.6393C32.642 17.9206 32.8 18.3022 32.8 18.7C32.8 19.0978 32.642 19.4794 32.3607 19.7607C32.0794 20.042 31.6978 20.2 31.3 20.2C30.9022 20.2 30.5206 20.042 30.2393 19.7607C29.958 19.4794 29.8 19.0978 29.8 18.7C29.8 18.3022 29.958 17.9206 30.2393 17.6393C30.5206 17.358 30.9022 17.2 31.3 17.2ZM25 19C26.5913 19 28.1174 19.6321 29.2426 20.7574C30.3679 21.8826 31 23.4087 31 25C31 26.5913 30.3679 28.1174 29.2426 29.2426C28.1174 30.3679 26.5913 31 25 31C23.4087 31 21.8826 30.3679 20.7574 29.2426C19.6321 28.1174 19 26.5913 19 25C19 23.4087 19.6321 21.8826 20.7574 20.7574C21.8826 19.6321 23.4087 19 25 19ZM25 21.4C24.0452 21.4 23.1295 21.7793 22.4544 22.4544C21.7793 23.1295 21.4 24.0452 21.4 25C21.4 25.9548 21.7793 26.8705 22.4544 27.5456C23.1295 28.2207 24.0452 28.6 25 28.6C25.9548 28.6 26.8705 28.2207 27.5456 27.5456C28.2207 26.8705 28.6 25.9548 28.6 25C28.6 24.0452 28.2207 23.1295 27.5456 22.4544C26.8705 21.7793 25.9548 21.4 25 21.4Z" fill="black"/>
</svg>
