<svg width="50" height="50" viewBox="0 0 50 50" fill="none" xmlns="http://www.w3.org/2000/svg">
<circle cx="25" cy="25" r="25" fill="white"/>
<path d="M27.3765 30.0491V33.1105C27.3765 33.7586 27.1923 34.0826 26.8239 34.0826C26.6066 34.0826 26.3941 33.9762 26.1862 33.7634V29.3962C26.3941 29.1834 26.6066 29.077 26.8239 29.077C27.1923 29.077 27.3765 29.401 27.3765 30.0491ZM32.166 30.0636V30.731H30.8907V30.0636C30.8907 29.4059 31.1032 29.077 31.5283 29.077C31.9534 29.077 32.166 29.4059 32.166 30.0636ZM18.4777 26.9007H19.9939V25.5368H15.5729V26.9007H17.0607V35.1562H18.4777V26.9007ZM22.5587 35.1562H23.8198V27.9888H22.5587V33.4732C22.2753 33.8795 22.0061 34.0826 21.751 34.0826C21.581 34.0826 21.4818 33.981 21.4534 33.7779C21.444 33.7489 21.4393 33.5796 21.4393 33.2701V27.9888H20.1781V33.6618C20.1781 34.1358 20.2159 34.4888 20.2915 34.721C20.4049 35.0789 20.6788 35.2578 21.1134 35.2578C21.5668 35.2578 22.0486 34.9628 22.5587 34.3728V35.1562ZM28.6377 33.0089V30.1507C28.6377 29.4446 28.5951 28.9658 28.5101 28.7143C28.3495 28.1726 28.0142 27.9018 27.504 27.9018C27.0317 27.9018 26.5924 28.1629 26.1862 28.6853V25.5368H24.9251V35.1562H26.1862V34.4598C26.6113 34.9918 27.0506 35.2578 27.504 35.2578C28.0142 35.2578 28.3495 34.9918 28.5101 34.4598C28.5951 34.1987 28.6377 33.715 28.6377 33.0089ZM33.4271 32.8638V32.6752H32.1377C32.1377 33.1685 32.1282 33.4635 32.1093 33.5603C32.0432 33.9085 31.8543 34.0826 31.5425 34.0826C31.108 34.0826 30.8907 33.7489 30.8907 33.0815V31.8192H33.4271V30.3248C33.4271 29.5606 33.2996 28.9996 33.0445 28.6417C32.6761 28.1484 32.1754 27.9018 31.5425 27.9018C30.9001 27.9018 30.3947 28.1484 30.0263 28.6417C29.7618 28.9996 29.6296 29.5606 29.6296 30.3248V32.8348C29.6296 33.599 29.7665 34.16 30.0405 34.5179C30.4089 35.0112 30.919 35.2578 31.5709 35.2578C32.251 35.2578 32.7611 35.0015 33.1012 34.4888C33.2713 34.2277 33.3704 33.9665 33.3988 33.7054C33.4177 33.6183 33.4271 33.3378 33.4271 32.8638ZM24.8117 19.6172V16.5703C24.8117 15.9029 24.6086 15.5692 24.2024 15.5692C23.7962 15.5692 23.5931 15.9029 23.5931 16.5703V19.6172C23.5931 20.2943 23.7962 20.6328 24.2024 20.6328C24.6086 20.6328 24.8117 20.2943 24.8117 19.6172ZM35 30.5134C35 32.7768 34.8772 34.4695 34.6316 35.5915C34.4993 36.1622 34.2254 36.641 33.8097 37.0279C33.3941 37.4148 32.9123 37.6373 32.3644 37.6953C30.6262 37.8984 28.0047 38 24.5 38C20.9953 38 18.3738 37.8984 16.6356 37.6953C16.0877 37.6373 15.6036 37.4148 15.1832 37.0279C14.7628 36.641 14.4912 36.1622 14.3684 35.5915C14.1228 34.5082 14 32.8155 14 30.5134C14 28.25 14.1228 26.5573 14.3684 25.4353C14.5007 24.8646 14.7746 24.3858 15.1903 23.9989C15.6059 23.612 16.0924 23.3847 16.6498 23.317C18.3785 23.1235 20.9953 23.0268 24.5 23.0268C28.0047 23.0268 30.6262 23.1235 32.3644 23.317C32.9123 23.3847 33.3964 23.612 33.8168 23.9989C34.2372 24.3858 34.5088 24.8646 34.6316 25.4353C34.8772 26.5186 35 28.2113 35 30.5134ZM20.8583 12H22.3036L20.5891 17.7891V21.721H19.1721V17.7891C19.0398 17.0733 18.7517 16.048 18.3077 14.7132C17.9582 13.7169 17.6511 12.8125 17.3866 12H18.8887L19.8947 15.8158L20.8583 12ZM26.1012 16.8315V19.3705C26.1012 20.154 25.969 20.7247 25.7045 21.0826C25.3455 21.5759 24.8448 21.8225 24.2024 21.8225C23.5695 21.8225 23.0735 21.5759 22.7146 21.0826C22.4501 20.715 22.3178 20.1443 22.3178 19.3705V16.8315C22.3178 16.0577 22.4501 15.4918 22.7146 15.1339C23.0735 14.6406 23.5695 14.394 24.2024 14.394C24.8448 14.394 25.3455 14.6406 25.7045 15.1339C25.969 15.4918 26.1012 16.0577 26.1012 16.8315ZM30.8482 14.481V21.721H29.5587V20.923C29.058 21.5227 28.5715 21.8225 28.0992 21.8225C27.6646 21.8225 27.386 21.6436 27.2632 21.2857C27.1876 21.0536 27.1498 20.6908 27.1498 20.1975V14.481H28.4393V19.8058C28.4393 20.125 28.444 20.2943 28.4534 20.3136C28.4818 20.5264 28.581 20.6328 28.751 20.6328C29.0061 20.6328 29.2753 20.4249 29.5587 20.0089V14.481H30.8482Z" fill="black"/>
</svg>
